<svg width="320" height="240" viewBox="0 0 320 240" fill="none" xmlns="http://www.w3.org/2000/svg">
  <defs>
    <linearGradient id="sports_bg" x1="0" y1="0" x2="0" y2="240" gradientUnits="userSpaceOnUse">
      <stop offset="0%" stop-color="#FFFFFF"/>
      <stop offset="100%" stop-color="#F8FAFC"/>
    </linearGradient>
    <linearGradient id="tub_grad" x1="0" y1="0" x2="90" y2="120" gradientUnits="userSpaceOnUse">
      <stop offset="0%" stop-color="#1E293B"/>
      <stop offset="100%" stop-color="#0F172A"/>
    </linearGradient>
    <linearGradient id="stick_grad" x1="0" y1="0" x2="30" y2="90" gradientUnits="userSpaceOnUse">
      <stop offset="0%" stop-color="#2E7032"/>
      <stop offset="100%" stop-color="#1E4620"/>
    </linearGradient>
    <filter id="shadow_sports" x="-20%" y="-20%" width="140%" height="140%">
      <feDropShadow dx="0" dy="8" stdDeviation="12" flood-color="#0B103A" flood-opacity="0.1"/>
    </filter>
  </defs>

  <rect width="320" height="240" rx="12" fill="url(#sports_bg)"/>

  <!-- Ground Shadows -->
  <ellipse cx="145" cy="206" rx="65" ry="10" fill="#0B103A" fill-opacity="0.08"/>
  <ellipse cx="235" cy="204" rx="30" ry="6" fill="#0B103A" fill-opacity="0.06"/>

  <!-- Protein / Hydration Tub (Left) -->
  <g filter="url(#shadow_sports)">
    <!-- Tub Body -->
    <rect x="95" y="85" width="100" height="115" rx="14" fill="url(#tub_grad)"/>
    <!-- Lid -->
    <rect x="91" y="65" width="108" height="24" rx="6" fill="#334155"/>
    <line x1="91" y1="77" x2="199" y2="77" stroke="#475569" stroke-width="1.5"/>
    
    <!-- Tub Metallic Label -->
    <rect x="99" y="105" width="92" height="75" fill="#FFFFFF"/>
    <!-- Label Graphics -->
    <rect x="109" y="117" width="40" height="6" rx="3" fill="#2E7032"/>
    <rect x="109" y="129" width="72" height="12" rx="2" fill="#0B103A"/>
    <rect x="109" y="147" width="55" height="5" rx="2" fill="#0A6EFF"/>
    
    <!-- Energy Bolt Icon on Tub Label -->
    <path d="M172 155L164 167H170L167 177L177 164H171L174 155Z" fill="#EAB308"/>
  </g>

  <!-- Electrolyte Stick Pack (Right) -->
  <g transform="translate(215, 105) rotate(12)" filter="url(#shadow_sports)">
    <rect x="0" y="0" width="34" height="95" rx="5" fill="url(#stick_grad)"/>
    <!-- Tear Notch -->
    <path d="M0 12L4 15L0 18V12Z" fill="#FFFFFF"/>
    <path d="M34 12L30 15L34 18V12Z" fill="#FFFFFF"/>
    <!-- Stick Pack Label Text -->
    <rect x="6" y="25" width="22" height="4" rx="2" fill="#FFFFFF"/>
    <rect x="6" y="34" width="22" height="35" rx="2" fill="#FFFFFF" fill-opacity="0.2"/>
    <circle cx="17" cy="51" r="6" fill="#EAB308"/>
  </g>
</svg>
